<svg width="804" height="1354" viewBox="0 0 804 1354" fill="none" xmlns="http://www.w3.org/2000/svg">
<path d="M512.288 1005.9C512.288 1021.26 524.739 1033.71 540.098 1033.71C555.457 1033.71 567.908 1021.26 567.908 1005.9C567.908 990.543 555.457 978.092 540.098 978.092C524.739 978.092 512.288 990.543 512.288 1005.9Z" fill="#22314A"/>
<path d="M64.1382 1014.02L230.158 1014.02" stroke="#22314A" stroke-width="16" stroke-linecap="round" stroke-linejoin="round"/>
<path d="M79.8086 688.4C64.1829 688.4 49.1968 694.606 38.1459 705.654C27.0949 716.701 20.8839 731.685 20.8786 747.31L20.8786 891.31C20.8694 899.055 22.3868 906.726 25.3442 913.883C28.3016 921.041 32.6409 927.546 38.114 933.026C43.5871 938.505 50.0866 942.852 57.2408 945.818C64.3951 948.784 72.0639 950.31 79.8086 950.31" stroke="#721B29" stroke-width="16" stroke-linecap="round" stroke-linejoin="round"/>
<path d="M780.828 992.189L660.828 992.189C650.254 992.216 640.121 996.428 632.644 1003.91C625.167 1011.38 620.955 1021.52 620.928 1032.09C620.952 1042.67 625.163 1052.8 632.64 1060.28C640.117 1067.76 650.252 1071.97 660.828 1072" stroke="#721B29" stroke-width="16" stroke-linecap="round" stroke-linejoin="round"/>
<path d="M36.3292 1086.55C36.3292 1101.91 48.7802 1114.36 64.1392 1114.36C79.4983 1114.36 91.9492 1101.91 91.9492 1086.55C91.9492 1071.19 79.4983 1058.74 64.1392 1058.74C48.7802 1058.74 36.3292 1071.19 36.3292 1086.55Z" fill="#9D653F"/>
<path d="M171.069 1126.65C171.069 1142.01 183.52 1154.46 198.879 1154.46C214.238 1154.46 226.689 1142.01 226.689 1126.65C226.689 1111.29 214.238 1098.84 198.879 1098.84C183.52 1098.84 171.069 1111.29 171.069 1126.65Z" fill="#721B29"/>
<path d="M287.769 1058.74C287.769 1098.88 320.309 1131.42 360.449 1131.42C400.589 1131.42 433.129 1098.88 433.129 1058.74C433.129 1018.6 400.589 986.061 360.449 986.061C320.309 986.061 287.769 1018.6 287.769 1058.74Z" stroke="#22314A" stroke-width="16" stroke-linecap="round" stroke-linejoin="round"/>
<path d="M549.658 1345.83C534.029 1345.83 519.04 1339.62 507.988 1328.57C496.937 1317.52 490.728 1302.53 490.728 1286.9L490.728 1142.9C490.728 1135.16 492.253 1127.5 495.214 1120.35C498.176 1113.2 502.517 1106.71 507.989 1101.23C513.461 1095.76 519.958 1091.42 527.107 1088.46C534.257 1085.5 541.92 1083.98 549.658 1083.98" stroke="#9D653F" stroke-width="16" stroke-linecap="round" stroke-linejoin="round"/>
<path d="M91.9587 892.73L257.969 892.73" stroke="#721B29" stroke-width="16" stroke-linecap="round" stroke-linejoin="round"/>
<path d="M404.339 620.39C394.738 610.79 382.505 604.252 369.189 601.604C355.872 598.955 342.069 600.315 329.525 605.511C316.981 610.708 306.26 619.507 298.717 630.796C291.174 642.085 287.148 655.358 287.148 668.935C287.148 682.513 291.174 695.785 298.717 707.074C306.26 718.364 316.981 727.163 329.525 732.359C342.069 737.555 355.872 738.915 369.189 736.266C382.505 733.618 394.738 727.08 404.339 717.48L452.889 668.93" stroke="#22314A" stroke-width="16" stroke-linecap="round" stroke-linejoin="round"/>
<path d="M321.458 847.249C321.458 862.608 333.909 875.059 349.268 875.059C364.627 875.059 377.078 862.608 377.078 847.249C377.078 831.89 364.627 819.439 349.268 819.439C333.909 819.439 321.458 831.89 321.458 847.249Z" fill="#22314A"/>
<path d="M80.9691 807.31L200.969 807.31C211.543 807.283 221.677 803.071 229.154 795.594C236.63 788.117 240.843 777.984 240.869 767.41C240.843 756.836 236.63 746.702 229.154 739.225C221.677 731.748 211.543 727.536 200.969 727.51" stroke="#9D653F" stroke-width="16" stroke-linecap="round" stroke-linejoin="round"/>
<path d="M420.998 792.82L540.998 792.82C551.574 792.844 561.71 797.055 569.189 804.532C576.668 812.01 580.882 822.145 580.908 832.72V832.72C580.882 843.296 576.668 853.431 569.189 860.908C561.71 868.385 551.574 872.597 540.998 872.62" stroke="#721B29" stroke-width="16" stroke-linecap="round" stroke-linejoin="round"/>
<path d="M312.11 927.861L785.02 927.861" stroke="#9D653F" stroke-width="16" stroke-linecap="round" stroke-linejoin="round"/>
<path d="M574.798 668.931C574.798 684.29 587.249 696.741 602.608 696.741C617.967 696.741 630.418 684.29 630.418 668.931C630.418 653.572 617.967 641.121 602.608 641.121C587.249 641.121 574.798 653.572 574.798 668.931Z" fill="#9D653F"/>
<path d="M658.399 778.592C658.399 765.012 662.426 751.737 669.97 740.446C677.514 729.155 688.238 720.355 700.784 715.158C713.33 709.961 727.135 708.602 740.454 711.251C753.772 713.9 766.006 720.439 775.609 730.042C785.211 739.644 791.75 751.878 794.399 765.197C797.049 778.516 795.689 792.321 790.492 804.867C785.296 817.413 776.495 828.136 765.204 835.68C753.913 843.225 740.638 847.252 727.059 847.252L658.399 847.252" stroke="#22314A" stroke-width="16" stroke-linecap="round" stroke-linejoin="round"/>
<path d="M520.189 609.481C520.189 593.852 526.398 578.862 537.449 567.811C548.501 556.759 563.49 550.551 579.119 550.551L723.119 550.551C738.748 550.551 753.737 556.759 764.789 567.811C775.84 578.862 782.049 593.852 782.049 609.481" stroke="#9D653F" stroke-width="16" stroke-linecap="round" stroke-linejoin="round"/>
<path d="M19.3304 542.131C19.3304 528.551 23.3574 515.276 30.9024 503.984C38.4473 492.693 49.1711 483.893 61.7177 478.696C74.2642 473.5 88.0699 472.141 101.389 474.791C114.708 477.441 126.942 483.981 136.544 493.584C146.146 503.188 152.684 515.423 155.332 528.742C157.98 542.061 156.619 555.867 151.421 568.413C146.223 580.958 137.421 591.681 126.129 599.224C114.836 606.768 101.56 610.793 87.9803 610.791L19.3304 610.791" stroke="#9D653F" stroke-width="16" stroke-linecap="round" stroke-linejoin="round"/>
<path d="M751.07 167.951L751.07 47.9508C751.044 37.3768 746.832 27.2434 739.355 19.7664C731.878 12.2894 721.744 8.07718 711.17 8.05078V8.05078C700.6 8.0692 690.466 12.271 682.984 19.7381C675.502 27.2051 671.28 37.3303 671.24 47.9008" stroke="#721B29" stroke-width="16" stroke-linecap="round" stroke-linejoin="round"/>
<path d="M500.98 133.871L667 133.871" stroke="#22314A" stroke-width="16" stroke-linecap="round" stroke-linejoin="round"/>
<path d="M283.829 133.87C283.829 174.01 316.369 206.55 356.509 206.55C396.65 206.55 429.189 174.01 429.189 133.87C429.189 93.7304 396.65 61.1904 356.509 61.1904C316.369 61.1904 283.829 93.7304 283.829 133.87Z" stroke="#9D653F" stroke-width="16" stroke-linecap="round" stroke-linejoin="round"/>
<path d="M328.7 133.871C328.7 149.23 341.151 161.681 356.51 161.681C371.869 161.681 384.32 149.23 384.32 133.871C384.32 118.512 371.869 106.061 356.51 106.061C341.151 106.061 328.7 118.512 328.7 133.871Z" fill="#721B29"/>
<path d="M147.159 35.81C147.159 51.169 159.61 63.62 174.969 63.62C190.328 63.62 202.779 51.169 202.779 35.81C202.779 20.451 190.328 8 174.969 8C159.61 8 147.159 20.451 147.159 35.81Z" fill="#9D653F"/>
<path d="M276.641 251.32L749.561 251.32" stroke="#22314A" stroke-width="16" stroke-linecap="round" stroke-linejoin="round"/>
<path d="M671.24 456.9C657.661 456.9 644.386 452.873 633.095 445.329C621.804 437.784 613.004 427.061 607.807 414.515C602.61 401.969 601.25 388.164 603.9 374.845C606.549 361.526 613.088 349.292 622.69 339.69C632.293 330.088 644.527 323.549 657.845 320.899C671.164 318.25 684.969 319.61 697.515 324.807C710.061 330.003 720.785 338.804 728.329 350.095C735.874 361.386 739.9 374.66 739.9 388.24L739.9 456.9" stroke="#721B29" stroke-width="16" stroke-linecap="round" stroke-linejoin="round"/>
<path d="M513.1 329.99L513.1 496" stroke="#9D653F" stroke-width="16" stroke-linecap="round" stroke-linejoin="round"/>
<path d="M356.519 333.021C356.519 348.38 368.97 360.831 384.329 360.831C399.688 360.831 412.139 348.38 412.139 333.021C412.139 317.662 399.688 305.211 384.329 305.211C368.97 305.211 356.519 317.662 356.519 333.021Z" fill="#721B29"/>
<path d="M432.279 392.1L432.279 558.11" stroke="#721B29" stroke-width="16" stroke-linecap="round" stroke-linejoin="round"/>
<path d="M291.889 333.021L291.889 453.021C291.916 463.596 296.128 473.729 303.605 481.206C311.082 488.683 321.215 492.895 331.789 492.921C342.363 492.895 352.497 488.683 359.974 481.206C367.451 473.729 371.663 463.596 371.689 453.021" stroke="#22314A" stroke-width="16" stroke-linecap="round" stroke-linejoin="round"/>
<path d="M8.00018 109.5L128 109.5C138.578 109.524 148.715 113.736 156.195 121.216C163.674 128.695 167.886 138.832 167.91 149.41V149.41C167.884 159.977 163.677 170.104 156.209 177.58C148.74 185.056 138.617 189.273 128.05 189.31" stroke="#22314A" stroke-width="16" stroke-linecap="round" stroke-linejoin="round"/>
<path d="M74.47 334.491C74.47 374.631 107.01 407.171 147.15 407.171C187.29 407.171 219.83 374.631 219.83 334.491C219.83 294.35 187.29 261.811 147.15 261.811C107.01 261.811 74.47 294.35 74.47 334.491Z" stroke="#9D653F" stroke-width="16" stroke-linecap="round" stroke-linejoin="round"/>
<path d="M119.339 334.492C119.339 349.851 131.79 362.302 147.149 362.302C162.508 362.302 174.959 349.851 174.959 334.492C174.959 319.133 162.508 306.682 147.149 306.682C131.79 306.682 119.339 319.133 119.339 334.492Z" fill="#22314A"/>
<path d="M19.3281 197.75L19.3281 363.76" stroke="#22314A" stroke-width="16" stroke-linecap="round" stroke-linejoin="round"/>
<path d="M219.83 475.1L219.83 641.12" stroke="#721B29" stroke-width="16" stroke-linecap="round" stroke-linejoin="round"/>
</svg>
