<svg width="379" height="200" viewBox="0 0 379 200" fill="none" xmlns="http://www.w3.org/2000/svg">
<path d="M149 2.99999L357.873 3" stroke="#9D653F" stroke-width="6" stroke-linecap="round" stroke-linejoin="round"/>
<path d="M270.006 113.012C275.532 113.012 280.012 108.532 280.012 103.006C280.012 97.4797 275.532 93 270.006 93C264.48 93 260 97.4797 260 103.006C260 108.532 264.48 113.012 270.006 113.012Z" fill="#9D653F"/>
<path d="M317.006 123.012C322.532 123.012 327.012 118.532 327.012 113.006C327.012 107.48 322.532 103 317.006 103C311.48 103 307 107.48 307 113.006C307 118.532 311.48 123.012 317.006 123.012Z" fill="#721B29"/>
<path d="M193.006 74.0116C198.532 74.0116 203.012 69.5318 203.012 64.0058C203.012 58.4797 198.532 54 193.006 54C187.48 54 183 58.4797 183 64.0058C183 69.5318 187.48 74.0116 193.006 74.0116Z" fill="#9D653F"/>
<path d="M33.0058 112.012C38.5318 112.012 43.0116 107.532 43.0116 102.006C43.0116 96.4797 38.5318 92 33.0058 92C27.4797 92 23 96.4797 23 102.006C23 107.532 27.4797 112.012 33.0058 112.012Z" fill="#721B29"/>
<path d="M86.0058 65.0116C91.5318 65.0116 96.0116 60.5318 96.0116 55.0058C96.0116 49.4797 91.5318 45 86.0058 45C80.4797 45 76 49.4797 76 55.0058C76 60.5318 80.4797 65.0116 86.0058 65.0116Z" fill="#9D653F"/>
<path d="M117.006 139.012C122.532 139.012 127.012 134.532 127.012 129.006C127.012 123.48 122.532 119 117.006 119C111.48 119 107 123.48 107 129.006C107 134.532 111.48 139.012 117.006 139.012Z" fill="#9D653F"/>
<path d="M8.99968 33.2025C8.99968 27.5792 11.2335 22.1863 15.2097 18.21C19.186 14.2338 24.5789 12 30.2022 12L82.0121 12C87.6347 12.001 93.0267 14.2352 97.0021 18.2113C100.978 22.1875 103.211 27.5799 103.211 33.2025" stroke="#721B29" stroke-width="7" stroke-linecap="round" stroke-linejoin="round"/>
<path d="M354 26.9999C359.623 26.9999 365.016 29.2337 368.992 33.21C372.968 37.1862 375.202 42.5792 375.202 48.2024L375.202 100.012C375.201 105.635 372.967 111.027 368.991 115.002C365.015 118.978 359.622 121.211 354 121.211" stroke="#22314A" stroke-width="7" stroke-linecap="round" stroke-linejoin="round"/>
<path d="M136.703 59C131.817 59 127.041 60.4489 122.978 63.1635C118.916 65.8781 115.75 69.7364 113.88 74.2506C112.01 78.7647 111.521 83.7319 112.475 88.5239C113.428 93.316 115.782 97.7177 119.237 101.172C122.692 104.627 127.094 106.979 131.886 107.932C136.678 108.885 141.645 108.395 146.159 106.525C150.673 104.655 154.531 101.488 157.245 97.425C159.959 93.3621 161.407 88.5856 161.407 83.6997V59" stroke="#721B29" stroke-width="6" stroke-linecap="round" stroke-linejoin="round"/>
<path d="M281.097 66.139C285.328 63.696 288.74 60.0531 290.901 55.6709C293.062 51.2887 293.875 46.3642 293.237 41.52C292.599 36.6759 290.539 32.1297 287.317 28.4563C284.095 24.783 279.856 22.1476 275.137 20.8834C270.417 19.6191 265.429 19.7829 260.802 21.3538C256.176 22.9248 252.119 25.8325 249.145 29.7091C246.171 33.5858 244.413 38.2572 244.094 43.1328C243.775 48.0084 244.909 52.8691 247.353 57.1001L259.703 78.4906" stroke="#22314A" stroke-width="6" stroke-linecap="round" stroke-linejoin="round"/>
<path d="M37.9512 139.23C33.1071 138.591 28.1824 139.403 23.7999 141.563C19.4173 143.723 15.7738 147.135 13.33 151.365C10.8862 155.596 9.75196 160.457 10.0707 165.333C10.3895 170.208 12.1469 174.88 15.1207 178.757C18.0945 182.633 22.1512 185.541 26.7777 187.112C31.4042 188.683 36.3927 188.847 41.1123 187.583C45.832 186.319 50.0708 183.684 53.2927 180.011C56.5146 176.338 58.5749 171.791 59.213 166.947L62.4424 142.46" stroke="#9D653F" stroke-width="6" stroke-linecap="round" stroke-linejoin="round"/>
<path d="M349.643 171.552C350.135 166.69 349.174 161.793 346.882 157.477C344.59 153.162 341.071 149.624 336.768 147.309C332.465 144.995 327.572 144.008 322.708 144.474C317.844 144.94 313.228 146.838 309.443 149.928C305.658 153.018 302.875 157.161 301.444 161.833C300.014 166.505 300.001 171.496 301.407 176.175C302.814 180.854 305.576 185.011 309.345 188.121C313.114 191.23 317.721 193.152 322.582 193.643L347.156 196.129" stroke="#9D653F" stroke-width="6" stroke-linecap="round" stroke-linejoin="round"/>
<path d="M4 127.733V68" stroke="#9D653F" stroke-width="8" stroke-linecap="round" stroke-linejoin="round"/>
<path d="M217 139L276.732 139" stroke="#303E55" stroke-width="8" stroke-linecap="round" stroke-linejoin="round"/>
<path d="M92 157.733V98" stroke="#22314A" stroke-width="8" stroke-linecap="round" stroke-linejoin="round"/>
<path d="M314 26.9999L314 70.1748C314.009 73.9793 315.525 77.6252 318.215 80.3153C320.905 83.0055 324.551 84.521 328.356 84.5305V84.5305C332.159 84.5239 335.805 83.0121 338.497 80.3255C341.189 77.6389 342.708 73.996 342.722 70.1928" stroke="#721B29" stroke-width="6" stroke-linecap="round" stroke-linejoin="round"/>
<path d="M193.518 88.0001L169.114 123.617C166.972 126.76 166.161 130.625 166.86 134.364C167.558 138.104 169.709 141.415 172.843 143.573V143.573C175.984 145.718 179.846 146.531 183.585 145.837C187.324 145.142 190.637 142.995 192.798 139.866" stroke="#22314A" stroke-width="6" stroke-linecap="round" stroke-linejoin="round"/>
<path d="M214.006 43.0116C219.532 43.0116 224.012 38.5318 224.012 33.0058C224.012 27.4797 219.532 23 214.006 23C208.48 23 204 27.4797 204 33.0058C204 38.5318 208.48 43.0116 214.006 43.0116Z" fill="#22314A"/>
<path d="M59.7217 112.531L59.7217 69.3557C59.7122 65.5512 58.1967 61.9053 55.5065 59.2152C52.8164 56.525 49.1704 55.0095 45.366 55V55C41.5628 55.0066 37.9169 56.5184 35.2249 59.205C32.5329 61.8916 31.0138 65.5345 30.9996 69.3377" stroke="#22314A" stroke-width="6" stroke-linecap="round" stroke-linejoin="round"/>
<path d="M270.211 164C270.211 169.623 267.977 175.016 264.001 178.992C260.025 182.969 254.632 185.202 249.009 185.202L197.199 185.202C191.576 185.201 186.184 182.967 182.209 178.991C178.233 175.015 176 169.623 176 164" stroke="#9D653F" stroke-width="7" stroke-linecap="round" stroke-linejoin="round"/>
<path d="M88.9997 184.722L132.175 184.722C135.979 184.713 139.625 183.197 142.315 180.507C145.005 177.817 146.521 174.171 146.53 170.366V170.366C146.524 166.563 145.012 162.917 142.325 160.225C139.639 157.533 135.996 156.014 132.193 156" stroke="#721B29" stroke-width="6" stroke-linecap="round" stroke-linejoin="round"/>
<path d="M123 33L182.732 33" stroke="#9D653F" stroke-width="8" stroke-linecap="round" stroke-linejoin="round"/>
<path d="M235 118.733V59" stroke="#721B29" stroke-width="8" stroke-linecap="round" stroke-linejoin="round"/>
</svg>
